# xmcd
#
# Track frame offsets:
#	150
#	21380
#	37152
#
# Disc length: 1095 seconds
#
# Revision: 1
# Processed by: cddbd v1.5.1PL0 Copyright (c) Steve Scherf et al.
# Submitted via: CDex 1.50Beta5
#
DISCID=23044503
DTITLE=真田木綿（清水愛）＆加藤麻（笹島かほる） - らいむいろ戦奇譚 プチキャラクターCd「愛と明日のために」
DYEAR=2003
DGENRE=Pop
TTITLE0=トーク前半
TTITLE1=愛と明日のために
TTITLE2=トーク後半
EXTD=
EXTT0=
EXTT1=
EXTT2=
PLAYORDER=
